<svg xmlns="http://www.w3.org/2000/svg" xmlns:xlink="http://www.w3.org/1999/xlink" width="500" zoomAndPan="magnify" viewBox="0 0 375 374.999991" height="500" preserveAspectRatio="xMidYMid meet" version="1.0"><path fill="#000000" d="M 345.550781 203.492188 C 347.183594 193.914062 348.214844 184.152344 348.214844 174.105469 C 348.214844 77.945312 270.269531 0 174.105469 0 C 77.945312 0 0 77.945312 0 174.105469 C 0 270.269531 77.945312 348.214844 174.105469 348.214844 C 184.152344 348.214844 193.914062 347.183594 203.492188 345.550781 C 221.679688 363.738281 246.804688 375 274.554688 375 C 330.039062 375 375 330.039062 375 274.554688 C 375 246.804688 363.738281 221.679688 345.550781 203.492188 Z M 174.105469 334.820312 C 85.488281 334.820312 13.394531 262.726562 13.394531 174.105469 C 13.394531 85.488281 85.488281 13.394531 174.105469 13.394531 C 262.726562 13.394531 334.820312 85.488281 334.820312 174.105469 C 334.820312 180.644531 334.3125 187.058594 333.550781 193.378906 C 316.980469 181.3125 296.625 174.105469 274.554688 174.105469 C 262.792969 174.105469 251.558594 176.222656 241.070312 179.945312 C 241.070312 141.457031 241.070312 82.582031 241.070312 82.582031 L 120.535156 104.503906 L 120.535156 226.980469 C 114.855469 225.148438 108.011719 225.027344 101.128906 227.144531 C 86.71875 231.5625 77.730469 243.9375 81.054688 254.746094 C 84.386719 265.554688 98.746094 270.722656 113.167969 266.277344 C 127.460938 261.871094 133.929688 252.320312 133.929688 238.929688 C 133.929688 227.894531 133.929688 154.648438 133.929688 129.269531 L 227.679688 112.246094 L 227.679688 185.746094 C 219.777344 189.925781 212.558594 195.148438 206.089844 201.1875 C 194.492188 205.59375 186.976562 215.144531 187.605469 224.398438 C 179.074219 239.167969 174.105469 256.273438 174.105469 274.554688 C 174.105469 296.625 181.3125 316.980469 193.378906 333.550781 C 187.058594 334.3125 180.644531 334.820312 174.105469 334.820312 Z M 274.554688 361.605469 C 226.472656 361.605469 187.5 322.632812 187.5 274.554688 C 187.5 226.472656 226.472656 187.5 274.554688 187.5 C 322.632812 187.5 361.605469 226.472656 361.605469 274.554688 C 361.605469 322.632812 322.632812 361.605469 274.554688 361.605469 Z M 274.554688 361.605469 " fill-opacity="1" fill-rule="nonzero"/><path fill="#000000" d="M 281.25 267.855469 L 281.25 214.285156 L 267.855469 214.285156 L 267.855469 267.855469 L 214.285156 267.855469 L 214.285156 281.25 L 267.855469 281.25 L 267.855469 334.820312 L 281.25 334.820312 L 281.25 281.25 L 334.820312 281.25 L 334.820312 267.855469 Z M 281.25 267.855469 " fill-opacity="1" fill-rule="nonzero"/></svg>