<svg xmlns="http://www.w3.org/2000/svg" xmlns:xlink="http://www.w3.org/1999/xlink" width="500" zoomAndPan="magnify" viewBox="0 0 375 374.999991" height="500" preserveAspectRatio="xMidYMid meet" version="1.0"><defs><clipPath id="b67cb170ec"><path d="M 35.019531 42.738281 L 339.980469 42.738281 L 339.980469 347.703125 L 35.019531 347.703125 Z M 35.019531 42.738281 " clip-rule="nonzero"/></clipPath><clipPath id="a1792c4bc5"><path d="M 187.5 42.738281 C 103.285156 42.738281 35.019531 111.007812 35.019531 195.21875 C 35.019531 279.433594 103.285156 347.703125 187.5 347.703125 C 271.714844 347.703125 339.980469 279.433594 339.980469 195.21875 C 339.980469 111.007812 271.714844 42.738281 187.5 42.738281 Z M 187.5 42.738281 " clip-rule="nonzero"/></clipPath></defs><g clip-path="url(#b67cb170ec)"><g clip-path="url(#a1792c4bc5)"><path fill="#000000" d="M 35.019531 42.738281 L 339.980469 42.738281 L 339.980469 347.703125 L 35.019531 347.703125 Z M 35.019531 42.738281 " fill-opacity="1" fill-rule="nonzero"/></g></g><path fill="#ff5757" d="M 187.5 375 C 291.054688 375 375 291.054688 375 187.5 C 375 83.945312 291.054688 0 187.5 0 C 83.945312 0 0 83.945312 0 187.5 C 0 291.054688 83.945312 375 187.5 375 Z M 187.503906 205.265625 L 187.503906 109.988281 C 187.503906 97.730469 197.484375 87.703125 209.679688 87.703125 L 231.855469 87.703125 C 244.054688 87.703125 254.03125 97.730469 254.03125 109.988281 C 254.03125 122.246094 244.054688 132.273438 231.855469 132.273438 L 209.679688 132.273438 L 209.679688 242.039062 C 209.679688 264.214844 194.269531 284.273438 172.535156 287.726562 C 165.535156 288.871094 158.363281 288.316406 151.621094 286.105469 C 144.878906 283.894531 138.761719 280.097656 133.777344 275.023438 C 128.796875 269.949219 125.09375 263.753906 122.980469 256.949219 C 120.871094 250.144531 120.410156 242.929688 121.640625 235.910156 C 124.300781 220.308594 135.722656 207.046875 150.582031 201.699219 C 164.21875 196.90625 177.082031 199.246094 187.503906 205.265625 Z M 187.503906 205.265625 " fill-opacity="1" fill-rule="evenodd"/></svg>