<svg xmlns="http://www.w3.org/2000/svg" xmlns:xlink="http://www.w3.org/1999/xlink" width="500" zoomAndPan="magnify" viewBox="0 0 375 374.999991" height="500" preserveAspectRatio="xMidYMid meet" version="1.0"><path fill="#ffffff" d="M 363.777344 172.777344 L 197.351562 58.226562 C 191.890625 54.425781 184.769531 53.953125 178.953125 57.039062 C 173.136719 60.125 169.457031 66.179688 169.457031 72.824219 L 169.457031 153.1875 L 31.402344 58.226562 C 25.941406 54.425781 18.820312 53.953125 13.003906 57.039062 C 7.1875 60.125 3.507812 66.179688 3.507812 72.824219 L 3.507812 302.164062 C 3.507812 308.8125 7.1875 314.863281 13.003906 317.949219 C 15.617188 319.257812 18.464844 319.96875 21.3125 319.96875 C 24.875 319.96875 28.433594 318.902344 31.402344 316.765625 L 169.457031 221.800781 L 169.457031 302.164062 C 169.457031 308.808594 173.136719 314.863281 178.953125 317.949219 C 181.566406 319.257812 184.414062 319.96875 187.261719 319.96875 C 190.707031 319.96875 194.265625 318.902344 197.351562 316.765625 L 363.777344 202.214844 C 368.644531 198.890625 371.492188 193.3125 371.492188 187.496094 C 371.492188 181.679688 368.644531 176.097656 363.777344 172.777344 Z M 363.777344 172.777344 " fill-opacity="1" fill-rule="nonzero"/></svg>