<svg xmlns="http://www.w3.org/2000/svg" xmlns:xlink="http://www.w3.org/1999/xlink" width="500" zoomAndPan="magnify" viewBox="0 0 375 374.999991" height="500" preserveAspectRatio="xMidYMid meet" version="1.0"><path fill="#ffffff" d="M 11.222656 172.777344 L 177.648438 58.226562 C 183.109375 54.425781 190.230469 53.953125 196.046875 57.039062 C 201.863281 60.125 205.542969 66.179688 205.542969 72.824219 L 205.542969 153.1875 L 343.597656 58.226562 C 349.058594 54.425781 356.179688 53.953125 361.996094 57.039062 C 367.8125 60.125 371.492188 66.179688 371.492188 72.824219 L 371.492188 302.164062 C 371.492188 308.8125 367.8125 314.863281 361.996094 317.949219 C 359.382812 319.257812 356.535156 319.96875 353.6875 319.96875 C 350.125 319.96875 346.566406 318.902344 343.597656 316.765625 L 205.542969 221.800781 L 205.542969 302.164062 C 205.542969 308.808594 201.863281 314.863281 196.046875 317.949219 C 193.433594 319.257812 190.585938 319.96875 187.738281 319.96875 C 184.292969 319.96875 180.734375 318.902344 177.648438 316.765625 L 11.222656 202.214844 C 6.355469 198.890625 3.507812 193.3125 3.507812 187.496094 C 3.507812 181.679688 6.355469 176.097656 11.222656 172.777344 Z M 11.222656 172.777344 " fill-opacity="1" fill-rule="nonzero"/></svg>