<svg xmlns="http://www.w3.org/2000/svg" xmlns:xlink="http://www.w3.org/1999/xlink" width="512" zoomAndPan="magnify" viewBox="0 0 384 383.999986" height="512" preserveAspectRatio="xMidYMid meet" version="1.0"><defs><clipPath id="1dd8378595"><path d="M 13.613281 0 L 370.613281 0 L 370.613281 384 L 13.613281 384 Z M 13.613281 0 " clip-rule="nonzero"/></clipPath></defs><g clip-path="url(#1dd8378595)"><path fill="#000000" d="M 205.835938 370.285156 L 205.835938 13.714844 C 205.835938 6.144531 199.691406 0 192.113281 0 C 184.539062 0 178.390625 6.144531 178.390625 13.714844 L 178.390625 370.285156 C 178.390625 377.855469 184.539062 384 192.113281 384 C 199.691406 384 205.835938 377.855469 205.835938 370.285156 Z M 260.730469 301.714844 L 260.730469 82.285156 C 260.730469 74.714844 254.582031 68.570312 247.007812 68.570312 C 239.433594 68.570312 233.285156 74.714844 233.285156 82.285156 L 233.285156 301.714844 C 233.285156 309.285156 239.433594 315.429688 247.007812 315.429688 C 254.582031 315.429688 260.730469 309.285156 260.730469 301.714844 Z M 150.945312 301.714844 L 150.945312 82.285156 C 150.945312 74.714844 144.796875 68.570312 137.222656 68.570312 C 129.644531 68.570312 123.5 74.714844 123.5 82.285156 L 123.5 301.714844 C 123.5 309.285156 129.644531 315.429688 137.222656 315.429688 C 144.796875 315.429688 150.945312 309.285156 150.945312 301.714844 Z M 315.625 260.570312 L 315.625 123.429688 C 315.625 115.859375 309.476562 109.714844 301.902344 109.714844 C 294.324219 109.714844 288.175781 115.859375 288.175781 123.429688 L 288.175781 260.570312 C 288.175781 268.140625 294.324219 274.285156 301.902344 274.285156 C 309.476562 274.285156 315.625 268.140625 315.625 260.570312 Z M 96.050781 260.570312 L 96.050781 123.429688 C 96.050781 115.859375 89.902344 109.714844 82.328125 109.714844 C 74.753906 109.714844 68.605469 115.859375 68.605469 123.429688 L 68.605469 260.570312 C 68.605469 268.140625 74.753906 274.285156 82.328125 274.285156 C 89.902344 274.285156 96.050781 268.140625 96.050781 260.570312 Z M 41.160156 233.144531 L 41.160156 150.855469 C 41.160156 143.285156 35.011719 137.144531 27.433594 137.144531 C 19.859375 137.144531 13.710938 143.285156 13.710938 150.855469 L 13.710938 233.144531 C 13.710938 240.714844 19.859375 246.855469 27.433594 246.855469 C 35.011719 246.855469 41.160156 240.714844 41.160156 233.144531 Z M 370.515625 233.144531 L 370.515625 150.855469 C 370.515625 143.285156 364.371094 137.144531 356.792969 137.144531 C 349.21875 137.144531 343.070312 143.285156 343.070312 150.855469 L 343.070312 233.144531 C 343.070312 240.714844 349.21875 246.855469 356.792969 246.855469 C 364.371094 246.855469 370.515625 240.714844 370.515625 233.144531 Z M 370.515625 233.144531 " fill-opacity="1" fill-rule="evenodd"/></g></svg>